#N canvas 396 499 602 252 10;
#X obj -43 -2076 ctlin 7;
#X obj 18 -2074 ctlin 74;
#X obj 82 -2075 ctlin 71;
#X obj 148 -2076 ctlin 76;
#X obj 226 -2075 ctlin 77;
#X obj 291 -2075 ctlin 93;
#X obj 361 -2077 ctlin 73;
#X obj 428 -2076 ctlin 75;
#X obj -47 -2023 ctlin 114;
#X obj 19 -2027 ctlin 18;
#X obj 82 -2025 ctlin 19;
#X obj 145 -2026 ctlin 16;
#X obj 225 -2027 ctlin 17;
#X obj 291 -2029 ctlin 91;
#X obj 358 -2027 ctlin 79;
#X obj 425 -2027 ctlin 72;
#X obj 187 -1904 notein;
#X obj -47 -1952 ctlin 22;
#X obj 11 -1952 ctlin 23;
#X obj 81 -1955 ctlin 24;
#X obj 144 -1954 ctlin 25;
#X obj 225 -1951 ctlin 26;
#X obj 290 -1951 ctlin 27;
#X obj 356 -1952 ctlin 28;
#X obj 425 -1948 ctlin 29;
#X obj -48 -2048 send knob1;
#X obj 21 -2046 send knob2;
#X obj 86 -2046 send knob3;
#X obj 147 -2045 send knob4;
#X obj 223 -2050 send knob5;
#X obj 292 -2051 send knob6;
#X obj 359 -2049 send knob7;
#X obj 428 -2049 send knob8;
#X obj -48 -1993 send knob9;
#X obj 21 -1991 send knob10;
#X obj 86 -1991 send knob11;
#X obj 147 -1990 send knob12;
#X obj 223 -1995 send knob13;
#X obj 292 -1996 send knob14;
#X obj 359 -1994 send knob15;
#X obj 428 -1994 send knob16;
#X obj -61 -1913 send button9;
#X obj -11 -1919 send button10;
#X obj 63 -1920 send button11;
#X obj 130 -1921 send button12;
#X obj 216 -1917 send button13;
#X obj 349 -1924 send button15;
#X obj 435 -1920 send button16;
#X obj 280 -1922 send button14;
#X obj 229 -1868 send keyVelocity;
#X obj 144 -1869 send keynote;
#X connect 0 0 25 0;
#X connect 1 0 26 0;
#X connect 2 0 27 0;
#X connect 3 0 28 0;
#X connect 4 0 29 0;
#X connect 5 0 30 0;
#X connect 6 0 31 0;
#X connect 7 0 32 0;
#X connect 8 0 33 0;
#X connect 9 0 34 0;
#X connect 10 0 35 0;
#X connect 11 0 36 0;
#X connect 12 0 37 0;
#X connect 13 0 38 0;
#X connect 14 0 39 0;
#X connect 15 0 40 0;
#X connect 16 0 50 0;
#X connect 16 1 49 0;
#X connect 17 0 41 0;
#X connect 18 0 42 0;
#X connect 19 0 43 0;
#X connect 20 0 44 0;
#X connect 21 0 45 0;
#X connect 22 0 48 0;
#X connect 23 0 46 0;
#X connect 24 0 47 0;
