#N canvas 639 306 639 379 10;
#X obj 50 87 coll;
#C restore;
#X text 93 95 # \, item \;;
#X text 94 78 collects a list of information in this format:;
#X floatatom 11 20 5 0 0 0 - - -;
#X msg 55 20 1;
#X msg 92 20 2;
#X msg 128 20 3;
#X msg 166 19 4;
#X symbolatom 116 165 10 0 0 0 - - -;
#X symbolatom 48 164 10 0 0 0 - - -;
#X obj 48 124 unpack s s;
#X obj 254 127 coll Ted;
#C restore;
#X floatatom 293 209 5 0 0 0 - - -;
#X floatatom 250 208 5 0 0 0 - - -;
#X msg 233 18 1;
#X msg 270 18 2;
#X msg 306 18 3;
#X msg 344 17 4;
#X obj 256 167 unpack 0 0 0;
#X floatatom 335 209 5 0 0 0 - - -;
#X floatatom 429 210 5 0 0 0 - - -;
#X floatatom 386 209 5 0 0 0 - - -;
#X obj 392 168 unpack 0 0 0;
#X floatatom 471 210 5 0 0 0 - - -;
#X obj 390 128 coll oscillators;
#C restore;
#X obj 508 129 coll filters;
#C restore;
#X connect 0 0 10 0;
#X connect 3 0 0 0;
#X connect 4 0 0 0;
#X connect 5 0 0 0;
#X connect 6 0 0 0;
#X connect 7 0 0 0;
#X connect 10 0 9 0;
#X connect 10 1 8 0;
#X connect 11 0 18 0;
#X connect 14 0 11 0;
#X connect 15 0 11 0;
#X connect 16 0 11 0;
#X connect 17 0 11 0;
#X connect 18 0 13 0;
#X connect 18 1 12 0;
#X connect 18 2 19 0;
#X connect 22 0 21 0;
#X connect 22 1 20 0;
#X connect 22 2 23 0;
#X connect 24 0 22 0;
